<svg xmlns="http://www.w3.org/2000/svg" viewBox="0 0 41.86 16.9"><defs><style>.cls-1{fill:#fff;}</style></defs><g id="Layer_2" data-name="Layer 2"><g id="Layer_1-2" data-name="Layer 1"><path d="M39.64,1.57A8.93,8.93,0,0,0,34.33,0c-5.9,0-11.81,0-17.71,0A2.8,2.8,0,0,0,16,.15c2.4.3,4,1.79,5.48,3.48,2,0,4,0,6,0,2.59,0,5.18,0,7.77.11A2.63,2.63,0,0,1,37.92,6.2a10.73,10.73,0,0,1,0,4.15A2.88,2.88,0,0,1,35,13a13.86,13.86,0,0,1-1.44,0H27.71C25,13,24.94,13,23.3,10.9c-1.4-1.84-2.71-3.75-4.12-5.58A40,40,0,0,0,16.31,2,6.24,6.24,0,0,0,11.69,0c-1,0-2.08,0-3.11,0a2.88,2.88,0,0,0-.7.18A8.48,8.48,0,0,1,13.1,3.65c1.19,1.55,2.36,3.12,3.57,4.65,1.55,2,3.11,3.94,4.73,5.86a7.47,7.47,0,0,0,6.23,2.73c2-.06,4.07,0,6.1,0a16,16,0,0,0,2.5-.22,6,6,0,0,0,5.33-5.08,23.35,23.35,0,0,0,.3-4.27,7.78,7.78,0,0,0-2.23-5.75ZM0,.11A9.6,9.6,0,0,1,5.26,3.92q3.63,4.83,7.3,9.62a7.65,7.65,0,0,0,5.73,3.27,23.91,23.91,0,0,0,4,0,.65.65,0,0,0-.41-.29,7.92,7.92,0,0,1-4.74-3.22c-1.27-1.59-2.47-3.23-3.7-4.84-1.36-1.78-2.7-3.56-4.07-5.32A7,7,0,0,0,5.07.22,24.61,24.61,0,0,0,1.74,0,16.91,16.91,0,0,0,0,.11Z"/><path class="cls-1" d="M39.63,1.55A7.78,7.78,0,0,1,41.86,7.3a23.35,23.35,0,0,1-.3,4.27,6,6,0,0,1-5.33,5.08,16,16,0,0,1-2.5.22c-2,0-4.07,0-6.1,0a7.47,7.47,0,0,1-6.23-2.73c-1.62-1.92-3.18-3.89-4.73-5.86-1.21-1.53-2.38-3.1-3.57-4.65A8.48,8.48,0,0,0,7.88.18,2.88,2.88,0,0,1,8.58,0c1,0,2.07,0,3.11,0A6.24,6.24,0,0,1,16.31,2a40,40,0,0,1,2.87,3.36c1.41,1.83,2.72,3.74,4.12,5.58C24.94,13,25,13,27.71,13h5.87A13.86,13.86,0,0,0,35,13a2.88,2.88,0,0,0,2.91-2.63,10.73,10.73,0,0,0,0-4.15,2.63,2.63,0,0,0-2.66-2.45c-2.59-.11-5.18-.09-7.77-.11-2,0-4,0-6,0C20,1.94,18.4.45,16,.15A2.8,2.8,0,0,1,16.62,0c5.9,0,11.81,0,17.71,0a8.93,8.93,0,0,1,5.31,1.55Z"/><path class="cls-1" d="M0,.11A16.91,16.91,0,0,1,1.74,0,24.61,24.61,0,0,1,5.07.22,7,7,0,0,1,9.34,3.09c1.37,1.76,2.71,3.54,4.07,5.32,1.23,1.61,2.43,3.25,3.7,4.84a7.92,7.92,0,0,0,4.74,3.22.65.65,0,0,1,.41.29,23.91,23.91,0,0,1-4,0,7.65,7.65,0,0,1-5.73-3.27Q8.9,8.74,5.26,3.92A9.6,9.6,0,0,0,0,.11Z"/><path class="cls-1" d="M39.64,1.57v0Z"/></g></g></svg>