<svg xmlns="http://www.w3.org/2000/svg" viewBox="0 0 172.47 238.88"><defs><style>.cls-1,.cls-2{fill:#fff;}.cls-2{font-size:28.2px;font-family:MyriadPro-Regular, Myriad Pro;}.cls-3{letter-spacing:0em;}.cls-4{letter-spacing:0em;}.cls-5{letter-spacing:0.01em;}.cls-6{letter-spacing:0.01em;}.cls-7{letter-spacing:0.01em;}.cls-8{letter-spacing:0em;}.cls-9{letter-spacing:0.02em;}.cls-10{letter-spacing:-0.01em;}</style></defs><g id="Layer_2" data-name="Layer 2"><g id="Layer_1-2" data-name="Layer 1"><path class="cls-1" d="M111.05,82.81H89.66V55.71c-2.11-.36-3.7-.6-5.27-.91-6.81-1.36-11.51-6.62-11.64-13s4.73-12,11.75-13.42c1.43-.29,2.9-.43,4.9-.71V.47C91.71.34,93.47.16,95.23.15c18.08,0,36.16.37,54.22-.14a22.47,22.47,0,0,1,23,22.74c-.24,18.4-.05,36.81-.07,55.21,0,1.46-.18,2.92-.3,4.74H150.88c-3.45-9.77-9.59-16.38-21-15.84C119.61,67.34,114.17,73.59,111.05,82.81Z"/><path class="cls-1" d="M82.64,172.2c-2.26.14-3.87.32-5.48.32-18.24,0-36.48.06-54.73,0C9.24,172.47.1,163.44,0,150.37,0,132,0,113.56,0,95.15,0,93.68.18,92.21.3,90c7.06-.18,13.92-.19,21.16,0,2.81,10.27,9.6,16.44,20,16.39,10.16-.05,16.85-6.12,19.73-16.2H82.64v26.7c12.57,3.42,17,7.35,16.76,14.53s-4.29,10.64-16.76,14Z"/><path class="cls-1" d="M90,171.92v-20.7c10.12-3,16.44-9.78,16.23-20.44-.2-10-6.11-16.52-16.15-19.47V90h26.84c.6-2.69,1.13-4.74,1.52-6.82,1-5.14,5.64-9.73,12.71-9.86,5.88-.11,10.75,4,12.26,9.78.54,2.05.94,4.14,1.51,6.67h26.78a46.27,46.27,0,0,1,.51,4.7c0,18.73.09,37.47,0,56.21-.06,11.65-8.73,21.36-20.36,21.61-20.06.43-40.13.08-60.19.05A8.9,8.9,0,0,1,90,171.92Z"/><path class="cls-1" d="M27.39,82.85H.43C.29,80.57.11,79,.11,77.35c0-18.07.24-36.14-.1-54.2A22.47,22.47,0,0,1,22.9.28C41,.61,59,.36,77.09.38c1.61,0,3.22.18,5.15.3V21.53C72.24,24.62,65.8,31.3,66,42c.16,10.2,6.42,16.67,16.33,19.67v21H55.43c-.41,1.72-.71,2.8-.93,3.89-1.64,8.33-6.47,13-13.29,12.92s-11.37-4.59-13-12.68C28,85.71,27.76,84.61,27.39,82.85Z"/><text class="cls-2" transform="translate(22.16 203.83) scale(1.06 1)"><tspan class="cls-3">A</tspan><tspan class="cls-4" x="17.18" y="0">ll-</tspan><tspan class="cls-5" x="39.15" y="0">I</tspan><tspan x="46.17" y="0">n</tspan><tspan class="cls-6" x="61.82" y="0">-</tspan><tspan x="70.87" y="0">One</tspan><tspan class="cls-7" x="17.6" y="28">S</tspan><tspan class="cls-8" x="31.67" y="28">e</tspan><tspan class="cls-9" x="45.8" y="28">r</tspan><tspan x="55.73" y="28">vi</tspan><tspan class="cls-10" x="75.89" y="28">c</tspan><tspan class="cls-8" x="88.36" y="28">e</tspan></text></g></g></svg>