<svg xmlns="http://www.w3.org/2000/svg" viewBox="0 0 130.32 113.89"><defs><style>.cls-1{fill:#fff;}</style></defs><g id="Layer_2" data-name="Layer 2"><g id="Layer_1-2" data-name="Layer 1"><path class="cls-1" d="M17.87,75.76c.29-2.12.35-3.47.67-4.76,4-16.31,8.14-32.59,12.08-48.92.79-3.29,2.27-5,5.76-5.77C59.31,11.14,82.19,5.71,105.1.44A42.3,42.3,0,0,1,111.35,0c-.34,2.83-.5,4.89-.83,6.93Q104,46.5,97.37,86.07c-.82,4.91-2.15,5.87-7.13,4.83q-30-6.23-59.91-12.57C26.35,77.49,22.37,76.69,17.87,75.76ZM59,43.76a13.13,13.13,0,0,0,2.32.5c2.35,0,5.09.16,5.23,2.92C66.64,49,65,51,64,52.82a27.48,27.48,0,0,1-2.72,3.39c3.27,4.62,7.77,4.45,12,4.22,3.4-.19,7.1-.61,8.22-5.17-.53-.8-1.07-1.61-1.62-2.42C78,50.06,78.2,47.15,81,45.41a14.35,14.35,0,0,1,5.92-1.8,85.25,85.25,0,0,1,8.81-.07c2.17-12.48,4.21-24.25,6.43-37l-38,7.61-1.31,6.68c3.65-1.34,6.79-2.88,10.11-3.61,4.39-.95,7.13,1.24,7.69,5.44,1.09,8.23-6.1,16.69-14.35,16.74a51.87,51.87,0,0,1-6.18-.74C59.73,40.3,59.4,41.82,59,43.76Zm3.64,4.9h-8.1c-.91,2.8-1.77,5.44-2.85,8.78-2-.84-3.31-1.46-4.7-2S44,53.79,42.68,54c-4,.47-5.1,3.71-5.26,7.07-.08,1.8.33,4.68,1.43,5.22,1.43.71,3.95,0,5.67-.87,2.21-1,4.14-2.25,6.86-.11L49.44,76.74l39.2,6.54c2.12-12,4.11-23.28,6.15-34.81H84.29c4.65,9.19,2.11,14.54-8,16-4.16.62-8.63-.19-12.86-.89a7.09,7.09,0,0,1-6.06-5.91c-.52-3.09,1-5.52,3.63-7.23A13.58,13.58,0,0,0,62.63,48.66ZM59.9,15.09l-25.73,5L28.81,42.5h5.31c-2.35-4.71-.6-8.3,3-10.15a23.46,23.46,0,0,1,10.6-2.26c4.27.05,5.73,3.72,3.49,7.5-.79,1.34-1.79,2.54-2.92,4.12h6.51c.43-1.11.77-1.91,1-2.73s.49-1.93.82-2.87c1.07-3,3.29-3.88,6.14-2.35,4.1,2.2,7.15,2,9.83-.63a10.13,10.13,0,0,0,1.71-11.57C68,18.32,64.8,27.36,58.25,25.7,58.79,22.25,59.29,19,59.9,15.09ZM21.64,72.16l23.71,3.69c.5-2.65.87-4.58,1.33-7a38.27,38.27,0,0,1-4.19,1.4c-4.48.86-7.72-.51-7.87-4a25.16,25.16,0,0,1,1.51-10.43c2.06-5,6.46-6.48,11.73-5,.56.15,1.15.17,2.17.32l.68-5c-2.79-.9-6.58-.48-5.64-4.35.56-2.32,2.69-4.25,4.12-6.38-1.51-3.41-4.4-2.64-6.84-2.47-2.94.2-5.64,1.12-6.52,4.55L37.09,41c-.73,5.89-5.57,4.22-9.22,5.4C25.86,54.69,23.84,63.07,21.64,72.16Z"/><path class="cls-1" d="M87.87,97.21c5.69,0,9.27,3.19,9.25,8.3s-3.46,8.2-9,8.23c-5.87,0-9.36-3-9.43-8.13S82.09,97.23,87.87,97.21Zm4.64,9c-1-3.31-1.79-5.36-4.73-5.24s-3.64,2.2-3.6,4.67,1.09,4.83,3.85,4.27C89.71,109.52,91,107.46,92.51,106.17Z"/><path class="cls-1" d="M4.5,113.67,0,113.28c2.31-5.47,4.44-10.51,6.61-15.67h5.73c2.11,5,4.21,10.1,6.53,15.66l-4.77.39-2-2.78H6.53Zm6.83-6.12-1.54-4.93-.86,0-1.45,4.61Z"/><path class="cls-1" d="M107.85,104.65c-4.73,2.17-2.21,6-3.9,8.63h-3.61V101.85c3.43,0,6.79-.33,10,.17,1.21.19,2.74,2.17,3,3.57.5,2.35.13,4.88.13,7.74l-4.44.21C108.68,110.54,108.3,107.86,107.85,104.65Z"/><path class="cls-1" d="M67.24,113.32h-4l-1.19-8.77c-4.84,2-2.06,6-3.89,8.78l-3.71.23V102.37c3.3-.19,6.41-.66,9.46-.39a4.51,4.51,0,0,1,3.16,2.88C67.57,107.47,67.24,110.23,67.24,113.32Z"/><path class="cls-1" d="M130.32,108.29l-8.86.75v1.31h7.9c-1.66,3.33-5.75,4.35-9.44,2.89a6,6,0,0,1-3.69-6.89c1-3.6,4-5.18,9-4.57C128.88,102.22,130.44,104.11,130.32,108.29ZM121.4,105l.12,1.56,3.83-.25,0-1.31Z"/><path class="cls-1" d="M33.74,113.38h-4V97.65l4-.21Z"/><path class="cls-1" d="M21.28,97.65h3.89v15.58l-3.89.28Z"/><path class="cls-1" d="M50.43,102.22v11.06H46.19V102.22Z"/><path class="cls-1" d="M70.32,109.29l-.26-3c2.5.33,5.34-1.6,7,2.61Z"/><path class="cls-1" d="M43.07,106.83c-1,2.73-2.1,3-6,1.66C37.64,105.83,38.45,105.59,43.07,106.83Z"/><path class="cls-1" d="M45.58,100.16c2.07-3.51,3.19-3.55,5.25-.53Z"/></g></g></svg>