<svg xmlns="http://www.w3.org/2000/svg" viewBox="0 0 189.75 158.41"><defs><style>.cls-1{fill:#fff;}</style></defs><g id="Layer_2" data-name="Layer 2"><g id="Layer_1-2" data-name="Layer 1"><path class="cls-1" d="M138.52,79c-.49,24.2-18.45,43.6-43.47,43.76-24.46.16-43.62-18.55-43.78-43.32-.16-24.31,18.46-43.61,43.34-43.78C118.63,35.52,137.68,53.84,138.52,79Zm-50,4.17c-2.82-2.7-4.78-4.68-6.85-6.54-3-2.66-6.07-2.77-8.35-.42s-2.31,5.37.51,8.37,5.84,5.86,8.83,8.73c4.32,4.15,6.69,4.2,10.94,0,6.4-6.25,12.7-12.6,19-18.91a16.92,16.92,0,0,0,1.66-1.84c1.77-2.5,1.67-5-.41-7.22s-5-2.45-7.58-.47A29.44,29.44,0,0,0,103,68C98.33,72.91,93.65,77.81,88.48,83.2Z"/><path class="cls-1" d="M15.32,73.57c-3.12,0-6.23.11-9.34,0-5.26-.23-7.54-4-4.83-8.47q7.73-12.73,16-25.14c2.71-4.06,7-4,9.78.07q8.27,12.11,16.14,24.47c3.12,4.91.91,8.88-4.85,9.08-2.95.11-5.9,0-9.25,0A61.14,61.14,0,0,0,31,96c6.88,26.46,28.74,45.37,55.92,48.9,17.47,2.26,33.1-2.2,47.34-12.24,1.08-.76,2.09-1.63,3.18-2.38,3.42-2.38,7.09-2.17,9.38.49,2.49,2.9,2.06,6.52-1.47,9.57a73.12,73.12,0,0,1-26.89,14.58C73.13,168.54,26.77,141,17.38,94.7,16,88.11,16,81.24,15.32,73.57Z"/><path class="cls-1" d="M174.2,85c3.53,0,6.65-.12,9.76,0,4.84.23,7.29,4.13,4.8,8.24-5.22,8.65-10.71,17.15-16.35,25.54-2.56,3.81-6.91,3.78-9.48,0-5.67-8.36-11.21-16.82-16.55-25.4-2.61-4.19-.4-8.06,4.51-8.36,3.13-.19,6.28,0,9.65,0,1.73-6.19.46-12.1-.57-17.84A66.3,66.3,0,0,0,94.32,12.94,65.36,65.36,0,0,0,55.4,26,38.72,38.72,0,0,1,51,29.21a6.31,6.31,0,0,1-8-1.78,6.06,6.06,0,0,1,.19-7.81,18.12,18.12,0,0,1,3.27-3C93-20,163,7.25,172.74,65.81c.75,4.55.77,9.22,1.11,13.83C174,81.25,174.07,82.86,174.2,85Z"/></g></g></svg>