<svg xmlns="http://www.w3.org/2000/svg" viewBox="0 0 183.54 146.91"><defs><style>.cls-1{fill:#fff;}</style></defs><g id="Layer_2" data-name="Layer 2"><g id="Layer_1-2" data-name="Layer 1"><path class="cls-1" d="M65.22,105.93,10,105.83a31,31,0,0,1-4-.06A6.35,6.35,0,0,1,.2,100,32,32,0,0,1,0,95.48Q0,52.74,0,10a31.4,31.4,0,0,1,.08-3.5C.6,2.28,2.58.4,6.89,0c1-.08,2,0,3,0H154.19c.83,0,1.66,0,2.49,0,5.47.25,7.42,2.19,7.45,7.71.06,11,0,22,0,33q0,18,0,36c-2.42,2.11-4.94,1.83-7.51.33-1.7-2.35-1.33-5.09-1.34-7.73,0-17.32,0-34.64,0-52,0-2.3.35-4.67-.91-7.56-48-.36-95.95-.36-143.62-.35-1.94,4.62-2.24,80.19-.62,85.74,2.35,1.54,5.08,1,7.67,1q55.23.06,110.45,0c2.95,0,6-.49,8.74,1.21,2,2.82,1.88,5.69.22,8.6-1.69,1.33-3.71,1.33-5.69,1.33-10.78,0-21.55.18-32.33-.08-9.44.25-18.89.08-28.33.09C68.88,107.4,66.88,107.28,65.22,105.93Z"/><path class="cls-1" d="M65.22,105.93h34c2.21,2.42.59,5.89,2.42,8.65,3.67,1.49,7.66.61,11.56.74,4.28.16,8.58,0,12.86.06,6.45.14,7.8,1.44,8.36,7.79a4.61,4.61,0,0,0,.59,2.51,19.38,19.38,0,0,0,.47-5.69c0-2.16-.05-4.31,0-6.46.1-2.61-.46-5.36,1.42-7.63,0-2.72,0-5.43,0-8.14-2.7-5.85-1.67-11.88-.68-17.85a4.63,4.63,0,0,1,3.62-3.72c5.61-1.11,11.27-2.05,16.78.56l7.5,0H179c3.49,1.26,4.51,3.53,4.51,6.45q0,28.71,0,57.43a9.78,9.78,0,0,1-1.08,4.56c-1.35,1.62-3,1.75-4.66,1.75-12.6,0-25.19,0-37.41,0-3.46-1.33-3.47-4.1-3.5-6.61a3.41,3.41,0,0,0-3.69-.22c-.76,1.94.42,4.64-2.33,6.82-14,0-28.57.05-43.17-.39-1.15-2.46.13-4.66-1-6.58-1.7-.58-3.53-.29-5.31-.29-21.71,0-43.42,0-65.14-.05-1.59,0-3.31.6-4.78-.58,2.11-2.26,4.91-1.67,7.49-1.68,19.55-.07,39.11,0,58.67-.05,2.29,0,4.65.32,6.77-.84a3,3,0,0,0,.74-3.19c-.48-1-.93-1.3-1.4-1.4-3.93-.86-7.93-.24-11.89-.46-2.27-.12-4.7.31-6.56-1.57Q65.26,117.86,65.22,105.93Z"/><path class="cls-1" d="M65.29,129.8H86.75c.81,3.06.36,5.78.38,8.49-2.11.8-3.94.46-5.72.46q-32.25,0-64.5,0c-1.82,0-3.63.13-5.44.21-2.85-.23-3.49-2.36-3.42-4.57.08-2.45,1.79-3.86,4.14-4.25a24.85,24.85,0,0,1,4-.14q22.1,0,44.19,0C62,130,63.64,129.87,65.29,129.8Z"/><path d="M156.69,76.74c-4.44,0-8.87,0-13.3.1-4.86.09-6.35,1.62-6.39,6.56,0,4.78,0,9.57,0,14.35H8V8.13H156.69Z"/><path d="M178.77,142.65H141.41V81.27h37.36Z"/><path d="M129.71,144.37H90.31v-25h39.4Z"/><path class="cls-1" d="M133.17,131.57c1.3-1,2.34-.69,3.6-.42v6.92c-1,1-2.06.74-3.42.31A20.32,20.32,0,0,1,133.17,131.57Z"/><path class="cls-1" d="M52.73,17.43c1.61-1.56,3.55-1.61,5.57-1.61q41.27,0,82.54,0c2.19,0,4.28,0,6,1.84V49c-3.63,1-84,1.47-94.11.49Z"/><path class="cls-1" d="M45.25,17V49.48H17.83v-32a5.65,5.65,0,0,1,4.76-1.68C30.06,16.35,37.68,14.73,45.25,17Z"/><path class="cls-1" d="M45.36,56.62c0,2.08.38,3.9-.44,5.93H18.15c-1.2-1.83-.46-3.95-.53-5.91C22.09,54.13,40.7,54.1,45.36,56.62Z"/><path class="cls-1" d="M145.34,100.05c1-.1,1.63-.21,2.28-.21,5.78,0,11.57,0,17.24,0a6,6,0,0,1,2,5c-.42,8.51.87,17.13-.85,25.76H145.34Z"/><path class="cls-1" d="M165.39,97.63H145.28V86.08h20.08C167.59,89.86,167.55,93.67,165.39,97.63Z"/><path class="cls-1" d="M117.9,135.58H97.45V122.22h20.24C118.45,126.48,118.07,130.85,117.9,135.58Z"/><path class="cls-1" d="M119,122.14a24.28,24.28,0,0,1,7.7,0v13.42a25,25,0,0,1-7.19.14C118.53,131.3,119.36,126.92,119,122.14Z"/></g></g></svg>