<svg xmlns="http://www.w3.org/2000/svg" viewBox="0 0 194.28 206.53"><defs><style>.cls-1{fill:#fff;}.cls-2{fill:#edf2f6;}.cls-3{fill:#86c542;}</style></defs><g id="Layer_2" data-name="Layer 2"><g id="Layer_1-2" data-name="Layer 1"><path class="cls-1" d="M97.49,0Q77.07,0,56.65,0c-9.21,0-15,4.46-17.29,13.29-.44,1.74-.26,3.66-.82,5.35A34.39,34.39,0,0,1,26.93,34.9C22.22,38.65,16.77,41,11.13,43,2.9,45.93-1,52.17.2,60.77c.6,4.39,1.24,8.82,2.17,13.13C6.91,95,11.72,116,20.07,136.05c8.58,20.55,18.59,40,35.92,55,14.66,12.68,31.56,16.95,50.2,15,14.3-1.5,26.23-8.7,36.47-18.47A110.25,110.25,0,0,0,163,160.31c11.23-20.57,18.87-42.51,24.41-65.23,2.57-10.54,4.48-21.21,6.36-31.9,1.82-10.32-1.27-16.79-10.93-20.32-5.46-2-10.8-4.24-15.3-8-5.95-4.93-11-10.67-12-18.67C154.2,5.71,148,0,137.33,0Z"/><path class="cls-2" d="M97.49,0h39.84c10.7,0,16.87,5.7,18.23,16.21,1,8,6.05,13.74,12,18.67,4.5,3.73,9.84,6,15.3,8,9.66,3.53,12.75,10,10.93,20.32-1.88,10.69-3.79,21.36-6.36,31.9-5.54,22.72-13.18,44.66-24.41,65.23a110.25,110.25,0,0,1-20.36,27.3c-10.24,9.77-22.17,17-36.47,18.47-18.64,2-35.54-2.31-50.2-15-17.33-15-27.34-34.49-35.92-55C11.72,116,6.91,95,2.37,73.9,1.44,69.59.8,65.16.2,60.77-1,52.17,2.9,45.93,11.13,43c5.64-2,11.09-4.33,15.8-8.08A34.39,34.39,0,0,0,38.54,18.65c.56-1.69.38-3.61.82-5.35C41.64,4.47,47.44,0,56.65,0Q77.07,0,97.49,0ZM97.4,9.27c-13.44,0-26.88,0-40.32,0-5.85,0-8,1.53-8.75,6.65-1.91,12.91-9.27,22-19.8,28.93-4.45,3-9.37,4.84-14.28,6.8-4.42,1.78-5.67,4-4.86,8.43.88,4.88,1.71,9.77,2.67,14.63,4.63,23.4,10.88,46.31,20.88,68,7.33,15.92,16.15,30.85,30,42.16Q82,200.61,106.51,196.58c14.3-2.36,25.27-10.18,34.58-20.76,10.18-11.58,17.32-25,23.25-39.11,10.31-24.52,16.37-50.22,20.84-76.35.81-4.77-.48-7-5.14-8.77-5.41-2.08-10.77-4.28-15.51-7.67-9.18-6.57-16.05-14.84-18-26.31-1.18-6.89-2.6-8.33-9.79-8.33Q117.07,9.25,97.4,9.27Z"/><path class="cls-3" d="M97.4,9.27q19.66,0,39.33,0c7.19,0,8.61,1.44,9.79,8.33,2,11.47,8.83,19.74,18,26.31,4.74,3.39,10.1,5.59,15.51,7.67,4.66,1.8,6,4,5.14,8.77-4.47,26.13-10.53,51.83-20.84,76.35-5.93,14.11-13.07,27.53-23.25,39.11-9.31,10.58-20.28,18.4-34.58,20.76q-24.49,4-43.62-11.65c-13.8-11.31-22.62-26.24-29.95-42.16-10-21.73-16.25-44.64-20.88-68-1-4.86-1.79-9.75-2.67-14.63-.81-4.45.44-6.65,4.86-8.43,4.91-2,9.83-3.85,14.28-6.8,10.53-7,17.89-16,19.8-28.93.76-5.12,2.9-6.63,8.75-6.65C70.52,9.24,84,9.27,97.4,9.27Zm-.15,48.86v.11c-7.13,0-14.27-.09-21.4,0-5.78.11-8.12,2.5-8.17,8.22-.06,7.79-.18,15.6.09,23.39a29,29,0,0,0,28.16,27.89c15.85.58,28.9-10.27,30.83-25.64,1.09-8.6.5-17.24.44-25.85,0-5.46-2.92-8-8.55-8.12C111.52,58,104.38,58.13,97.25,58.13Zm-21.7-1.81c2.64.51,5.33,1,8.07-.6.9-3.9-.08-8,1.1-11.82,1.58-5.16,4.8-8.78,10.08-9.89a12.87,12.87,0,0,1,13.62,5.08C110.67,42,110.91,45.42,111,49c0,2.52-1,5.35,1.37,7.41,4.5.54,4.5.54,7.76-.5,2.71-11.92-1.63-23.38-11-28.94-8.38-5-19.13-3.74-26.78,2.6C76.08,34.73,72.07,45.9,75.55,56.32Zm5.29,75.62c-4.65-1.88-9.15-3.14-14.08-1.53-3.64,1.19-6.09,3.39-6.77,7.16a9.33,9.33,0,0,0,3.48,9.3c2.06,1.72,4.54,2.68,6.86,3.93,2,1.09,4.27,2.07,4.29,5.37-4.57,5.21-9.78,1.24-14.71.37-.59,3.39-.59,3.39.15,6.36a23.89,23.89,0,0,0,13.09,1.51c4.36-.72,7.5-3.48,8.42-7.41a9.55,9.55,0,0,0-4.47-10.24c-1.94-1.25-4.07-2.2-6.11-3.28-1.76-.94-3.54-1.85-4.24-4.45,3.15-6.25,8.1-1.72,12.58-1.69C79.75,135.74,81.17,134.4,80.84,131.94ZM86,162.75c4.32,2.22,8.61,2.12,12.89,1.67s8.06-3.35,8.73-6.92c.84-4.44-.19-8.28-4.28-10.75-2.26-1.37-4.63-2.55-7-3.75-2.61-1.32-3.78-3.13-2.27-5.93,3.85-3.12,7.56.26,11.24.27a10.68,10.68,0,0,0,2.14-5.24c-4.34-1.78-8.62-3.14-13.42-2-4.34,1-7.09,3.54-7.82,7.91-.7,4.2,1.21,7.46,4.64,9.7,2.34,1.52,5,2.59,7.39,4a5,5,0,0,1,2.34,2.38c.35,1.66.12,3-1.46,4-4.45,1.48-8.64-.31-12.89-1.68C85.47,158.56,85.8,160.51,86,162.75Zm28.31-32V164h20.89c.08-2,.54-3.64-.42-5.36-4.28-.78-8.76.42-13.46-.75V130.72A16.87,16.87,0,0,0,114.29,130.76Z"/><path class="cls-2" d="M97.25,58.13c7.13,0,14.27-.1,21.4,0,5.63.11,8.52,2.66,8.55,8.12.06,8.61.65,17.25-.44,25.85-1.93,15.37-15,26.22-30.83,25.64A29,29,0,0,1,67.77,89.88c-.27-7.79-.15-15.6-.09-23.39,0-5.72,2.39-8.11,8.17-8.22,7.13-.12,14.27,0,21.4,0Zm2.16,28.8c-3.13-.71-5.28,0-6.68,2.52-1.73,3.11.73,5.18,1.5,6.51.79,2.94-.07,5,1,6.77,1.44,1.13,2.74,1.25,4.09-.12,1.22-1.86.18-4.12.84-6.32.83-1.38,2.3-2.61,2.38-4.7A6.31,6.31,0,0,0,99.41,86.93Z"/><path class="cls-2" d="M75.55,56.32c-3.48-10.42.53-21.59,6.82-26.79,7.65-6.34,18.4-7.59,26.78-2.6,9.33,5.56,13.67,17,11,28.94-3.26,1-3.26,1-7.76.5C110,54.31,111,51.48,111,49c-.07-3.54-.31-7-2.56-9.87A12.87,12.87,0,0,0,94.8,34c-5.28,1.11-8.5,4.73-10.08,9.89-1.18,3.86-.2,7.92-1.1,11.82C80.88,57.28,78.19,56.83,75.55,56.32Z"/><path class="cls-2" d="M80.84,131.94c.33,2.46-1.09,3.8-1.51,5.4-4.48,0-9.43-4.56-12.58,1.69.7,2.6,2.48,3.51,4.24,4.45,2,1.08,4.17,2,6.11,3.28A9.55,9.55,0,0,1,81.57,157c-.92,3.93-4.06,6.69-8.42,7.41a23.89,23.89,0,0,1-13.09-1.51c-.74-3-.74-3-.15-6.36,4.93.87,10.14,4.84,14.71-.37,0-3.3-2.28-4.28-4.29-5.37-2.32-1.25-4.8-2.21-6.86-3.93a9.33,9.33,0,0,1-3.48-9.3c.68-3.77,3.13-6,6.77-7.16C71.69,128.8,76.19,130.06,80.84,131.94Z"/><path class="cls-2" d="M86,162.75c-.18-2.24-.51-4.19.25-6.3,4.25,1.37,8.44,3.16,12.89,1.68,1.58-1,1.81-2.38,1.46-4a5,5,0,0,0-2.34-2.38c-2.43-1.39-5-2.46-7.39-4-3.43-2.24-5.34-5.5-4.64-9.7.73-4.37,3.48-6.86,7.82-7.91,4.8-1.16,9.08.2,13.42,2a10.68,10.68,0,0,1-2.14,5.24c-3.68,0-7.39-3.39-11.24-.27-1.51,2.8-.34,4.61,2.27,5.93,2.35,1.2,4.72,2.38,7,3.75,4.09,2.47,5.12,6.31,4.28,10.75-.67,3.57-4.33,6.46-8.73,6.92S90.3,165,86,162.75Z"/><path class="cls-2" d="M114.29,130.76a16.87,16.87,0,0,1,7,0v27.19c4.7,1.17,9.18,0,13.46.75,1,1.72.5,3.35.42,5.36H114.29Z"/><path class="cls-3" d="M99.41,86.93a6.31,6.31,0,0,1,3.12,4.66c-.08,2.09-1.55,3.32-2.38,4.7-.66,2.2.38,4.46-.84,6.32-1.35,1.37-2.65,1.25-4.09.12-1.06-1.78-.2-3.83-1-6.77-.77-1.33-3.23-3.4-1.5-6.51C94.13,87,96.28,86.22,99.41,86.93Z"/></g></g></svg>