<svg xmlns="http://www.w3.org/2000/svg" viewBox="0 0 440.1 269.54"><defs><style>.cls-1{fill:#fff;}</style></defs><g id="Layer_2" data-name="Layer 2"><g id="Layer_1-2" data-name="Layer 1"><path class="cls-1" d="M279,269.54H6.67c-2.42-1.93-5.31-3.42-6.67-7.79V38.44c.57-.56,1.44-1,1.71-1.74,1.55-4,4.65-4.75,8.48-4.74,89.53,0,179.06,0,269.1,0l5.84,4.81c2.06,4.85,1.42,9.29,1.42,13.65q0,103.31,0,206.6a18.25,18.25,0,0,1-.5,4.75C285,265.69,282.13,267.44,279,269.54ZM11,91V258.39c18.26.76,260.16.43,264.44-.31V91Z"/><path class="cls-1" d="M339.67,58.91h-50.1c0-5,0-9.74,0-14.53-.07-6.56-2.51-11.75-8.74-14.67-.29-.14-.48-.46-.73-.71H64.47a2,2,0,0,1-.38-.33.78.78,0,0,1-.18-.42q0-10.72,0-21.46A11.86,11.86,0,0,1,71.09.05c89.13,0,179,0,268.84,0a8.71,8.71,0,0,1,6.84,2.82c.8.85,1.64,1.65,2.2,2.2,2.06,4.29,1.5,8.54,1.5,12.73q0,39.42,0,78.85v4.75L339.67,110Z"/><path class="cls-1" d="M341.29,199c1.3-5.32,5.15-8.87,7.3-13.31L345,180.56l-13.25,5.25c-2.45-.9-3.26-3-4.13-4.75-1.27-2.61-2-5.47-3.08-8.19-.56-1.43-1.33-2.78-2.12-4.41,3.52-4.43,9.21-4.69,14-7.41v-6.33c-3.74-1.52-7.94-2-12.85-3.49l-2-2.46c1.49-5.65,2.92-11.68,4.52-17.36,3.3-1.51,5.72.44,8.29.76a59.12,59.12,0,0,1,7.62,2c1.38-2,2.54-3.69,3.7-5.36l-9.08-10.58v-2.93c4.48-3.71,9.07-7.5,13.79-11.42.44,0,1.39-.2,1.7.15,3.09,3.48,6.07,7,9.42,11l6.13-2.15c-.53-3.55.45-6.74-1-9.95-.82-1.82-.11-4.1,1.3-5.94l18-1.38c3.39,5.09,2.25,10.71,2.59,16.08l6.55,1.44,7.36-11.89a5.05,5.05,0,0,1,4.9.92c3.62,2.62,7.64,4.71,11.86,7.25l1.26,2.47c-2.05,4.49-5.67,8.16-7.19,12.91l3.32,4.86,14.27-5.83c3.89,4.38,4.33,10.64,7.52,15.74v3.93l-13.88,5.92c-1.13,1.86,1.2,3.77.92,6.27,3.46.08,6.49,1.89,10,2.28,1.81.21,3.43,2,4.74,2.81-1.44,5.78-2.75,11.06-4.06,16.3l-2.76,2.43-13.56-3.37-3.33,5.28,9.2,11.36a7.93,7.93,0,0,1-1.33,2.5c-3.19,3-6.49,5.94-9.8,8.84a6.94,6.94,0,0,1-2.41,1.39,15.8,15.8,0,0,1-3.11.31l-9.15-10.81-5.05,1.93c0,4.39,0,8.5,0,12.61,0,.24.4.47.5.58a5,5,0,0,1-5.86,3.56c-4.6-.67-9,1.73-13.41,1-.91-.86-1.75-1.66-2.56-2.41,0-2.41.16-4.75,0-7.06a65,65,0,0,0-1.27-6.54l-5-2.05c-3.7,3.95-5.16,9.61-9.5,13.45C352.1,206.19,346,203.59,341.29,199Zm44.08-27.26c1.91-.87,3.3-1.54,4.71-2.15,4.27-1.84,7.42-8.08,7.34-11.82-.06-2.82,0-5.64,0-7.47-2.12-7.05-7.07-10-13.34-12.49-.64,0-2.14,0-3.63,0-7.27-.11-11.85,4-15.26,9.81-2.59,4.41-2.39,9.25-.53,13.73,2.87,6.93,8.4,11.22,15.37,10.44A44,44,0,0,1,385.37,171.72Z"/><path class="cls-1" d="M186.08,149c3.91,3.27,3.71,8.7,6.68,12.94l-10,4.37v4.34l1.07,1.07,7.52,1.52,2.12,2.13c-2.1,4-1.32,9-4.27,12.66-3.51-1.09-6.74-2.39-10.35-2l-2.1,3.41c2.17,2.63,4.38,5.33,6.68,8.13-1.92,4-6.76,5.45-9.23,9.72-1.1-.47-2.57-.62-2.92-1.33-1.44-2.9-4.1-4.62-5.86-6.73l-3.64,1.06v11.08c-4.68,2.26-9.25,1.37-13.76,1.58a39.1,39.1,0,0,1-1.31-5.07,47.53,47.53,0,0,1-.05-5.62l-4.45-1.65c-2,3.28-3.91,6.34-6,9.75l-11.63-6.68c.62-3.92,2.6-7,4.83-10.23L127.09,190c-4-.17-7,3.69-11.55,2.8-1.47-3.61-3-7.31-4.34-10.62l2.3-2.29-.45-.3,7.54-3.47v-4.68l-10.94-2.67c.38-2,.72-3.84,1.1-5.67s.81-3.67,1.3-5.85l2.28-2.28,9.63,2.3,2.47-3.76c-1-3.44-4.61-5.2-6.84-8.34,2.35-4,6.56-6,10-9.22,1.72.62,2.61,2.32,3.94,3.48s2.36,2.34,3.59,3.56c1.53,0,3.28.76,4.53-1.78v-9.62c4.43-2.64,9.11-.95,13.72-1.6,1,3.64-.76,7.61,1.51,10.76l4.1,1.33c2.51-2.73,3.21-6.79,6.62-9.2l11.14,6.48c-.45,3.81-3.39,6.21-4.95,10,.48.85,1.3,2.34,2.22,4Zm-39,34.06c11.46,1.18,12.4-1.71,16.63-7.6,0-2,.13-4.2,0-6.33a9.26,9.26,0,0,0-3.11-6.59c-2.81-2.18-5.87-4.45-9.94-3.55a6.12,6.12,0,0,1-1.82,0c-4.24,1.79-7.62,3.76-8.83,7.36C139.05,173.17,139.52,179,147,183.07Z"/><path class="cls-1" d="M339.44,226.65V200.8c1.36.72,2.54,1.26,3.61,1.95,1.32.87,2.53,1.9,3.83,2.79s2.4,1.5,3.6,2.24c0,6.53.14,12.82-.05,19.1-.14,4.22-2.35,7.46-5.92,9.7a6.31,6.31,0,0,1-3.56,1.07c-16.94-.08-33.88-.05-50.82-.06-.12,0-.25-.2-.47-.38V226.65Z"/><path class="cls-1" d="M343.41,182.59l3.24,2.69-6.95,11.6v-12Z"/><path class="cls-1" d="M343.11,129.89,340.47,132c-.5-.38-.94-.56-.94-.75a19.5,19.5,0,0,1,.66-6.45C341.09,126.38,342,128,343.11,129.89Z"/></g></g></svg>